<?xml version="1.0" standalone="no"?>
<!DOCTYPE svg PUBLIC "-//W3C//DTD SVG 20010904//EN"
 "http://www.w3.org/TR/2001/REC-SVG-20010904/DTD/svg10.dtd">
<svg version="1.0" xmlns="http://www.w3.org/2000/svg"
 width="635.000000pt" height="540.000000pt" viewBox="0 0 635.000000 540.000000"
 preserveAspectRatio="xMidYMid meet">
<metadata>
Created by potrace 1.15, written by Peter Selinger 2001-2017
</metadata>
<g transform="translate(0.000000,540.000000) scale(0.100000,-0.100000)"
fill="#FFFFFF" stroke="none">
<path d="M283 5386 c-136 -43 -247 -167 -273 -307 -14 -70 -14 -4647 0 -4718
23 -121 113 -235 227 -289 l58 -27 2390 0 2390 0 58 27 c114 54 204 168 227
289 14 72 14 4648 0 4720 -23 120 -113 233 -227 287 l-58 27 -2375 2 c-1944 1
-2383 -1 -2417 -11z m1109 -778 c94 -47 176 -130 221 -225 30 -64 32 -74 32
-184 0 -113 -1 -116 -38 -191 -202 -410 -791 -317 -857 135 -24 165 69 357
216 443 90 53 139 65 250 62 93 -3 107 -6 176 -40z m2384 -1169 c446 -49 681
-286 759 -764 27 -162 35 -472 28 -1162 l-6 -673 -388 0 -388 0 -3 768 c-4
750 -4 769 -25 844 -42 147 -101 226 -206 274 -57 27 -71 29 -182 29 -139 0
-205 -16 -281 -68 -91 -62 -143 -153 -181 -312 -14 -61 -17 -165 -20 -802 l-4
-733 -390 0 -389 0 0 1270 0 1270 375 0 375 0 0 -170 c0 -181 7 -202 43 -141
36 61 110 142 180 197 197 154 409 206 703 173z m-2186 -1329 l0 -1270 -390 0
-390 0 0 1270 0 1270 390 0 390 0 0 -1270z"/>
</g>
</svg>
